<svg width="17" height="17" viewBox="0 0 17 17" fill="none" xmlns="http://www.w3.org/2000/svg">
<path d="M13.6539 2.82935H5.65393C5.52132 2.82935 5.39415 2.88202 5.30038 2.97579C5.20661 3.06956 5.15393 3.19674 5.15393 3.32935V5.82935H2.65393C2.52132 5.82935 2.39415 5.88202 2.30038 5.97579C2.20661 6.06956 2.15393 6.19674 2.15393 6.32935V14.3293C2.15393 14.462 2.20661 14.5891 2.30038 14.6829C2.39415 14.7767 2.52132 14.8293 2.65393 14.8293H10.6539C10.7865 14.8293 10.9137 14.7767 11.0075 14.6829C11.1013 14.5891 11.1539 14.462 11.1539 14.3293V11.8293H13.6539C13.7865 11.8293 13.9137 11.7767 14.0075 11.6829C14.1013 11.5891 14.1539 11.462 14.1539 11.3293V3.32935C14.1539 3.19674 14.1013 3.06956 14.0075 2.97579C13.9137 2.88202 13.7865 2.82935 13.6539 2.82935ZM10.1539 13.8293H3.15393V6.82935H10.1539V13.8293ZM13.1539 10.8293H11.1539V6.32935C11.1539 6.19674 11.1013 6.06956 11.0075 5.97579C10.9137 5.88202 10.7865 5.82935 10.6539 5.82935H6.15393V3.82935H13.1539V10.8293Z" fill="#C0C0C0"/>
</svg>
